<svg xmlns="http://www.w3.org/2000/svg" width="59.791" height="37.75" viewBox="0 0 59.791 37.75">
    <defs>
        <style>
            .prefix__cls-2,.prefix__cls-3{fill:none}.prefix__cls-2{stroke:#000;stroke-linejoin:round}.prefix__cls-3{stroke:#eb38ff;stroke-miterlimit:10}
        </style>
    </defs>
    <g id="prefix__Layer_2" data-name="Layer 2" transform="translate(-.5 -.5)">
        <g id="prefix__Layer_1" data-name="Layer 1" transform="translate(1 1)">
            <path id="prefix__Path_715" d="M29.822 35.69h7.042a2.352 2.352 0 0 1 2.352 2.352v1.473H27.47v-1.473a2.352 2.352 0 0 1 2.352-2.352z" data-name="Path 715" transform="translate(-18.122 -23.439)" style="fill:#8800c2"/>
            <path id="prefix__Path_716" d="M2.49 1h4.4a1.49 1.49 0 0 1 1.49 1.49v23.994H1V2.49A1.49 1.49 0 0 1 2.49 1z" class="prefix__cls-2" data-name="Path 716" transform="translate(-1 -1)"/>
            <path id="prefix__Path_717" d="M21.91 46.51H69.8A1.49 1.49 0 0 1 71.286 48v7.921H21.91z" class="prefix__cls-2" data-name="Path 717" transform="translate(-14.525 -30.438)"/>
            <path id="prefix__Rectangle_114" d="M0 0H58.791V6.805H0z" class="prefix__cls-2" data-name="Rectangle 114" transform="translate(0 25.484)"/>
            <path id="prefix__Rectangle_115" d="M0 0H4.46V4.46H0z" class="prefix__cls-3" data-name="Rectangle 115" transform="translate(4.513 32.29)"/>
            <path id="prefix__Rectangle_116" d="M0 0H4.46V4.46H0z" class="prefix__cls-3" data-name="Rectangle 116" transform="translate(49.817 32.29)"/>
            <path id="prefix__Rectangle_117" d="M0 0H4.46V4.46H0z" class="prefix__cls-2" data-name="Rectangle 117" transform="translate(4.513 32.29)"/>
            <path id="prefix__Rectangle_118" d="M0 0H4.46V4.46H0z" class="prefix__cls-2" data-name="Rectangle 118" transform="translate(49.817 32.29)"/>
        </g>
    </g>
</svg>
