<svg xmlns="http://www.w3.org/2000/svg" viewBox="0 0 138.75 52.77"><defs><style>.cls-1{fill:#8700c1;}.cls-2{fill:none;stroke:#000;stroke-linecap:round;stroke-linejoin:round;stroke-width:2px;}</style></defs><g id="Layer_2" data-name="Layer 2"><g id="Layer_1-2" data-name="Layer 1"><path class="cls-1" d="M88.18,28.63c4.29-1.84,38.38-15.87,38.38-15.87s-1.51-.13-6.52-1S56.45,3.51,56.45,3.51L12,17.22s-3,1.29-2.58,4.29L9.21,33.36,85.94,44V34.74S84.85,30.06,88.18,28.63Z"/><path class="cls-2" d="M1,28.86V35a3.72,3.72,0,0,0,3,3.66l90.63,13a7.29,7.29,0,0,0,4-.35l39.13-16-.68-16.43c-1.19-4.86-3.41-5.72-6-6.08L49.38,1.38l-1.79-.25a13.92,13.92,0,0,0-5.3.3l-37,11.72A5.67,5.67,0,0,0,1,18.65V24"/><path class="cls-2" d="M96.05,51.26V34.9a6.49,6.49,0,0,1,4.19-6.07l35.17-13.3"/></g></g></svg>