<svg xmlns="http://www.w3.org/2000/svg" width="18.83" height="17.041" viewBox="0 0 18.83 17.041">
    <g id="prefix__noun_Shopping_Bag_173284" data-name="noun_Shopping Bag_173284" transform="translate(-20.723 -23.504)">
        <path id="prefix__Path_656" d="M34.769 33.423a4.967 4.967 0 0 0-1.377-.522c-.374-.124-.631-.257-.631-.529a.391.391 0 0 1 .187-.342.943.943 0 0 1 .529-.125 2.418 2.418 0 0 1 1.214.359.1.1 0 0 0 .148-.04l.327-.708a.094.094 0 0 0-.047-.141 3.2 3.2 0 0 0-1.346-.366v-.552a.115.115 0 0 0-.117-.117h-.3a.12.12 0 0 0-.116.117v.56a2.053 2.053 0 0 0-1.058.357 1.258 1.258 0 0 0-.521 1.043 1.235 1.235 0 0 0 .623 1.12 6 6 0 0 0 1.3.5c.358.132.623.28.623.583a.5.5 0 0 1-.21.421.907.907 0 0 1-.568.148 2.515 2.515 0 0 1-1.323-.444c-.07-.047-.117-.023-.14.039l-.335.692a.106.106 0 0 0 .047.148 3.248 3.248 0 0 0 1.564.459v.517a.12.12 0 0 0 .117.117h.3a.115.115 0 0 0 .117-.117v-.537a2.022 2.022 0 0 0 1.019-.389 1.428 1.428 0 0 0 .551-1.143 1.281 1.281 0 0 0-.577-1.108zm2.255-6.9a3.591 3.591 0 0 0-7.089 0h-2.53v14.022h12.148V26.519zm-3.545-1.852a2.435 2.435 0 0 1 2.36 1.852h-4.72a2.435 2.435 0 0 1 2.36-1.856zm4.91 14.715h-9.821v-11.7h1.314v1.227h1.163v-1.231h4.866v1.227h1.163v-1.227h1.314v11.7zm-16.447-8.214h4.087V30.01h-4.087zm-1.219 2.941h5.306v-1.162h-5.306zm1.219 2.941h4.087v-1.162h-4.087z" data-name="Path 656" style="fill:#fff"/>
    </g>
</svg>
