<svg xmlns="http://www.w3.org/2000/svg" width="69" height="30.202" viewBox="0 0 69 30.202">
    <g id="prefix__Layer_2" data-name="Layer 2" transform="translate(-.5)">
        <g id="prefix__Layer_1" data-name="Layer 1" transform="translate(1)">
            <path id="prefix__Path_729" d="M38.587.837a156.1 156.1 0 0 1 21.64 1.334c6.928 1.021 8.785 2.242 8.94 2.652-.151.418-2.012 1.627-8.94 2.648a156.1 156.1 0 0 1-21.64 1.334 155.866 155.866 0 0 1-21.636-1.334c-6.923-1.021-8.789-2.242-8.94-2.648.151-.418 2.012-1.631 8.94-2.652A155.91 155.91 0 0 1 38.587.837m0-.837C21.239 0 7.17 2.159 7.17 4.823s14.069 4.82 31.417 4.82 31.421-2.159 31.421-4.82S55.939 0 38.587 0z" data-name="Path 729" transform="translate(-4.589)"/>
            <ellipse id="prefix__Ellipse_185" cx="24.343" cy="2.401" data-name="Ellipse 185" rx="24.343" ry="2.401" transform="translate(9.655 2.422)" style="fill:#8800c2"/>
            <path id="prefix__Path_730" d="M65.967 39.3H69l-7.76-17.4c3.28-.761 5.192-1.673 5.192-2.656v-2.531a.209.209 0 0 0-.356-.146 4.97 4.97 0 0 1-1.652.983 15.717 15.717 0 0 1-1.673.569c-5.275 1.523-15.733 2.56-27.752 2.56-12.215 0-22.8-1.071-28-2.631-.531-.163-1.008-.326-1.427-.5a4.991 4.991 0 0 1-1.644-.966.2.2 0 0 0-.351.146v2.51c0 .983 1.912 1.9 5.192 2.656L1 39.3h3.033l9.044-16.6c1.167.172 2.418.335 3.765.477L12.793 34.02h2.292l4.9-10.538c4.459.372 9.576.586 15.01.586s10.555-.213 15.014-.586l4.9 10.538h2.292l-4.027-10.844c1.33-.142 2.581-.305 3.744-.477z" data-name="Path 730" transform="translate(-1 -9.602)" style="fill:none;stroke:#000;stroke-linejoin:round"/>
        </g>
    </g>
</svg>