<?xml version="1.0" encoding="utf-8"?>
<!-- Generator: Adobe Illustrator 25.3.0, SVG Export Plug-In . SVG Version: 6.00 Build 0)  -->
<svg version="1.1" id="Layer_1" xmlns="http://www.w3.org/2000/svg" xmlns:xlink="http://www.w3.org/1999/xlink" x="0px" y="0px"
	 viewBox="0 0 300 300" style="enable-background:new 0 0 300 300;" xml:space="preserve">
<style type="text/css">
	.st0{fill:#8700C1;}
	.st1{display:none;fill:#8700C1;enable-background:new    ;}
	.st2{font-family:'OpenSans-Bold';}
	.st3{font-size:46.27px;}
	.st4{display:none;fill:#8700C1;}
</style>
<rect x="83.4" y="155.5" class="st0" width="133.1" height="11.9"/>
<path d="M65.6,129.5c-2.7-2.7-7-2.6-9.7,0.1c-1.3,1.3-2,3-2,4.8v75.9h30.7v-19.1h-17v-56.8C67.7,132.5,66.9,130.8,65.6,129.5z
	 M81.6,194.2v13H56.9v-72.8c0-2.1,1.7-3.8,3.8-3.8c1,0,2,0.4,2.7,1.1c0.7,0.7,1.2,1.7,1.2,2.7v59.9L81.6,194.2z"/>
<path d="M67.8,207.2H53.9v35.6c0,1.3,1.1,2.4,2.4,2.4h4.9c1.2,0,2.3-0.9,2.4-2.1L67.8,207.2z M60.7,242.2h-3.8v-32h7.5L60.7,242.2z"
	/>
<path d="M107.5,245.2h4.9c1.3,0,2.4-1.1,2.4-2.4v-35.6h-13.9l4.2,35.9C105.2,244.3,106.2,245.3,107.5,245.2z M111.8,210.2v32H108
	l-3.7-32H111.8z"/>
<path d="M214.8,154.4H85.2c-2,0-3.5,1.6-3.5,3.6c0,0,0,0,0,0v12.4h136.7V158C218.4,156,216.8,154.4,214.8,154.4
	C214.8,154.4,214.8,154.4,214.8,154.4z M215.3,167.4H84.7v-9.9h130.7V167.4z"/>
<path d="M84.3,245.2h8.3c1.5,0,2.7-1.2,2.7-2.7v-75.2H81.7v75.2C81.7,244,82.9,245.2,84.3,245.2z M84.7,170.4h7.7v71.9h-7.7V170.4z"
	/>
<path d="M207.3,245.2h8.3c1.5,0,2.7-1.2,2.7-2.7v-75.2h-13.7v75.2C204.6,244.1,205.8,245.2,207.3,245.2L207.3,245.2z M207.7,170.4
	h7.7v71.9h-7.7V170.4z"/>
<path d="M114.8,210.2v-8.1c0-6.1-4.9-11-11-11H92.3v19.1L114.8,210.2z M95.3,194.2h8.4c4.4,0,8,3.6,8,8v5.1H95.3V194.2z"/>
<path d="M232.4,191.2h-17v19.1h30.7v-75.9c0.1-3.8-2.8-7-6.6-7.1c-3.8-0.1-7,2.8-7.1,6.6c0,0.2,0,0.3,0,0.5L232.4,191.2z
	 M235.4,194.2v-59.8c0-1,0.4-2,1.1-2.7c0.7-0.7,1.7-1.1,2.7-1.1c2.1,0,3.8,1.7,3.8,3.8v72.9h-24.7v-13L235.4,194.2z"/>
<path d="M238.8,245.2h4.9c1.3,0,2.4-1.1,2.4-2.4v-35.6h-13.9l4.2,35.9C236.5,244.3,237.5,245.3,238.8,245.2z M243.1,210.2v32h-3.8
	l-3.7-32H243.1z"/>
<path d="M187.6,245.2h4.9c1.2,0,2.3-0.9,2.4-2.1l4.2-35.9h-13.9v35.6C185.2,244.2,186.3,245.2,187.6,245.2L187.6,245.2z
	 M188.2,210.2h7.5l-3.7,32h-3.8V210.2z"/>
<path d="M196.2,191.2c-6.1,0-11,4.9-11,11v8.1h22.4v-16.8h-2.2v-2.2H196.2z M204.7,207.2h-16.4v-5c0-4.4,3.6-8,8-8h8.5L204.7,207.2z
	"/>
<text transform="matrix(1 0 0 1 154.23 115.26)" class="st1 st2 st3">x4</text>
<circle class="st4" cx="119.4" cy="84.8" r="14.9"/>
<path class="st4" d="M119.4,102.5c-14.6,0-26.4,14.2-26.8,32h53.7C145.9,116.7,134,102.5,119.4,102.5z"/>
</svg>
