<svg xmlns="http://www.w3.org/2000/svg" width="132.038" height="56.283" viewBox="0 0 132.038 56.283">
  <g id="Group_348" data-name="Group 348" transform="translate(-2731 160)">
    <g id="Group_1" data-name="Group 1" transform="translate(2731 -160)">
      <path id="Path_1" data-name="Path 1" d="M-523.363,109.447l5.568,18.027h6.984l3.586-10.288,2.076,10.288h7.362l7.739-18.027H-497.5l-3.3,9.816-2.171-9.816h-7.55l-3.3,10-2.831-10Z" transform="translate(523.363 -87.173)" fill="#2e3192"/>
      <path id="Path_2" data-name="Path 2" d="M-473.748,109.054l-.661,5.474s6.04-2.831,9.06-1.416a1.867,1.867,0,0,1,.189,2.076,38.471,38.471,0,0,0-6.8,1.51c-1.982.85-4.814,1.51-5.285,6.041s5,5,5,5h4.53l1.6-4.341h-3.3s-1.794-1.982,1.415-2.925l2.737-.472.094,7.739h7.079V112.993a4.062,4.062,0,0,0-1.9-3.461C-461.954,108.312-465.91,107.34-473.748,109.054Z" transform="translate(509.613 -86.78)" fill="#2e3192"/>
      <path id="Path_3" data-name="Path 3" d="M-388.909,111.89v12.647h7.267l.283-12.647h4.153v-4.814h-4.153s-.849-4.058,4.531-2.454V100.47s-6.512-3.209-10.382.944c0,0-1.133,1.133-.66,5v.566h-2.737l.095,4.908Z" transform="translate(483.762 -84.142)" fill="#2e3192"/>
      <path id="Path_4" data-name="Path 4" d="M-368.885,109.447h7.55v18.121h-8.022Z" transform="translate(477.422 -87.173)" fill="#2e3192"/>
      <path id="Path_5" data-name="Path 5" d="M-354.561,107.561v5.474h2.643V123.7s.566,2.643,4.625,2.548h6.134v-5.474h-3.68l-.095-7.739h3.964v-4.908h-3.869v-5s-4.247.095-6.512,1.7v2.737Z" transform="translate(473.009 -85.287)" fill="#2e3192"/>
      <rect id="Rectangle_1" data-name="Rectangle 1" width="7.362" height="4.813" transform="translate(108.915 15.762)" fill="#2e3192"/>
      <path id="Path_6" data-name="Path 6" d="M-447.317,110.548c2.643,15.856,7.928,21.708,7.928,21.708,2.36,3.114,3.4,1.133,3.3.849s-2.737-7.644-2.737-7.644c-2.36-6.7-.85-9.627-.85-9.627,2.926,2.171,15.384,8.306,16.8,8.684s1.7-.661,1.7-.661a2.889,2.889,0,0,0-1.227-2.171s-18.121-9.532-15.007-14.346,17.649-10.476,17.649-10.476c-3.586-.472-10.949,1.6-10.949,1.6-13.685,4.908-12.647-7.267-12.647-7.267V77.7S-449.629,97.194-447.317,110.548Z" transform="translate(500.831 -77.704)" fill="#2e3192"/>
      <path id="Path_7" data-name="Path 7" d="M-409.568,108.772s-12.27-.66-10.194,13.214a7.581,7.581,0,0,0,4.256,5.022,9.419,9.419,0,0,0,4.118.923h8.992v-6.323s-2.579,2.246-7.893,1.193a3.629,3.629,0,0,1-2.044-1.189,4.664,4.664,0,0,1-1.2-2.458h13.024S-399,108.867-409.568,108.772Zm2.5,7.5h-6.04s-.189-3.492,3.02-3.4S-407.067,116.275-407.067,116.275Z" transform="translate(492.529 -86.97)" fill="#2e3192"/>
      <circle id="Ellipse_1" data-name="Ellipse 1" cx="3.87" cy="3.87" r="3.87" transform="translate(59.507 13.072)" fill="#2e3192"/>
    </g>
  </g>
</svg>
