<svg xmlns="http://www.w3.org/2000/svg" id="prefix__Layer_2" width="60.037" height="49.245" data-name="Layer 2" viewBox="0 0 60.037 49.245">
    <defs>
        <style>
            .prefix__cls-5{fill:#f79e1b}
        </style>
    </defs>
    <g id="prefix__Layer_1" data-name="Layer 1">
        <path id="prefix__Rectangle_105" d="M0 0H60.037V49.245H0z" data-name="Rectangle 105" style="fill:none"/>
        <path id="prefix__Path_649" d="M27.39 97.34v-2.454a1.456 1.456 0 0 0-1.538-1.554 1.513 1.513 0 0 0-1.374.7 1.435 1.435 0 0 0-1.292-.7 1.292 1.292 0 0 0-1.145.581v-.483h-.851v3.91h.859v-2.151a.916.916 0 0 1 .957-1.039c.564 0 .851.368.851 1.031v2.176h.859v-2.168a.92.92 0 0 1 .957-1.039c.581 0 .859.368.859 1.031v2.176zm12.71-3.91h-1.4v-1.186h-.859v1.186h-.777v.777h.793v1.8c0 .908.352 1.448 1.358 1.448a2 2 0 0 0 1.063-.3l-.245-.728a1.57 1.57 0 0 1-.753.221c-.409 0-.564-.262-.564-.654v-1.786h1.391zm7.255-.1a1.153 1.153 0 0 0-1.031.573v-.473h-.842v3.91h.851v-2.192c0-.646.278-1.006.818-1.006a1.386 1.386 0 0 1 .532.1l.262-.818a1.82 1.82 0 0 0-.605-.106zm-10.969.409a2.924 2.924 0 0 0-1.6-.409c-.99 0-1.636.474-1.636 1.251 0 .638.474 1.031 1.35 1.153l.409.057c.466.065.687.188.687.409 0 .3-.311.474-.892.474a2.082 2.082 0 0 1-1.3-.409l-.404.666a2.822 2.822 0 0 0 1.693.507c1.129 0 1.783-.532 1.783-1.276s-.515-1.047-1.366-1.17l-.409-.057c-.368-.049-.663-.123-.663-.384s.278-.458.744-.458a2.519 2.519 0 0 1 1.227.335zm22.784-.409a1.153 1.153 0 0 0-1.031.573v-.473h-.842v3.91h.851v-2.192c0-.646.278-1.006.818-1.006a1.386 1.386 0 0 1 .532.1l.262-.818a1.82 1.82 0 0 0-.605-.106zm-10.963 2.047a1.975 1.975 0 0 0 2.086 2.045 2.045 2.045 0 0 0 1.407-.466l-.409-.687a1.718 1.718 0 0 1-1.022.352 1.256 1.256 0 0 1 0-2.5 1.718 1.718 0 0 1 1.022.352l.409-.687a2.045 2.045 0 0 0-1.407-.466 1.975 1.975 0 0 0-2.086 2.045zm7.967 0V93.43h-.851v.47a1.485 1.485 0 0 0-1.227-.573 2.045 2.045 0 0 0 0 4.09 1.485 1.485 0 0 0 1.227-.573v.474h.851zm-3.165 0a1.174 1.174 0 1 1 .319.885 1.182 1.182 0 0 1-.319-.885zm-10.266-2.045a2.045 2.045 0 1 0 .057 4.09 2.376 2.376 0 0 0 1.624-.532l-.409-.63a1.861 1.861 0 0 1-1.137.409 1.084 1.084 0 0 1-1.17-.957h2.9v-.327a1.859 1.859 0 0 0-1.857-2.045zm0 .761a.969.969 0 0 1 .99.949h-2.045a1.006 1.006 0 0 1 1.039-.949zm21.312 1.292V91.86h-.818v2.04a1.485 1.485 0 0 0-1.227-.573 2.045 2.045 0 0 0 0 4.09 1.485 1.485 0 0 0 1.227-.573v.474h.818zm1.419 1.386a.393.393 0 0 1 .368.233.38.38 0 0 1 0 .3.391.391 0 0 1-.213.2.385.385 0 0 1-.155.033.409.409 0 0 1-.368-.237.385.385 0 0 1 0-.3.4.4 0 0 1 .38-.233zm0 .691a.29.29 0 0 0 .119-.025.307.307 0 0 0 .094-.065.295.295 0 0 0-.094-.474.294.294 0 0 0-.119-.025.307.307 0 0 0-.119.025.3.3 0 0 0-.1.065.3.3 0 0 0 .229.5zm.025-.487a.164.164 0 0 1 .106.033.1.1 0 0 1 .037.086.1.1 0 0 1-.029.074.143.143 0 0 1-.086.037l.119.135h-.094l-.11-.135H65.4v.135h-.078v-.36zm-.09.07v.1h.09a.086.086 0 0 0 .049 0 177.654 177.654 0 0 1 0-.074.086.086 0 0 0-.049 0zm-4.5-1.66a1.174 1.174 0 1 1 .319.885 1.182 1.182 0 0 1-.318-.885zm-28.722 0V93.43h-.851v.47a1.485 1.485 0 0 0-1.227-.573 2.045 2.045 0 0 0 0 4.09 1.485 1.485 0 0 0 1.227-.573v.474h.851zm-3.165 0a.5.5 0 1 1-.008 0z" data-name="Path 649" transform="translate(-12.524 -54.292)" style="fill:#fff"/>
        <g id="prefix___Group_" data-name="&lt;Group&gt;" transform="translate(6.198 6.196)">
            <path id="prefix__Rectangle_106" d="M0 0H12.883V23.152H0z" data-name="Rectangle 106" transform="translate(17.379 3.149)" style="fill:#ff5f00"/>
            <path id="prefix___Path_" d="M33.352 29.88a14.7 14.7 0 0 1 5.624-11.58 14.723 14.723 0 1 0 0 23.152 14.7 14.7 0 0 1-5.624-11.572z" data-name="&lt;Path&gt;" transform="translate(-15.155 -15.153)" style="fill:#eb001b"/>
            <path id="prefix__Path_650" d="M97.223 29.877A14.723 14.723 0 0 1 73.4 41.451a14.723 14.723 0 0 0 0-23.152 14.723 14.723 0 0 1 23.823 11.574z" class="prefix__cls-5" data-name="Path 650" transform="translate(-49.579 -15.151)"/>
            <path id="prefix__Path_651" d="M127.784 72.633v-.474h.192v-.1h-.487v.1h.209v.474zm.945 0v-.573h-.147l-.172.409-.172-.409h-.131v.573h.106V72.2l.16.372h.11l.16-.372v.434z" class="prefix__cls-5" data-name="Path 651" transform="translate(-81.548 -48.785)"/>
        </g>
    </g>
</svg>
