<svg xmlns="http://www.w3.org/2000/svg" width="13.324" height="24.951" viewBox="0 0 13.324 24.951">
    <defs>
        <style>
            .prefix__cls-1{fill:#fff}
        </style>
    </defs>
    <g id="prefix__noun_Mouse_1788594" transform="translate(-284.494 -83.205)">
        <g id="prefix__Group_641" data-name="Group 641" transform="translate(284.494 83.205)">
            <g id="prefix__Group_636" data-name="Group 636" transform="translate(0 5.088)">
                <g id="prefix__Group_635" data-name="Group 635">
                    <path id="prefix__Path_653" d="M296.654 271.411c0 .137-.006.273-.015.407-.006.067-.009.134-.017.2 0 .026-.006.052-.009.081l-.009.078a7.993 7.993 0 1 0-.02.122c-.012.064-.023.131-.038.195-.026.128-.058.256-.093.384s-.073.25-.116.372c-.02.055-.038.111-.061.166l-.035.09c-.006.017-.015.035-.02.055l.02-.049a1.359 1.359 0 0 1-.163.349c-.058.113-.119.227-.183.337s-.134.218-.2.323c-.029.044-.058.084-.087.125l-.067.093-.023.032.02-.026a1.166 1.166 0 0 1-.233.279c-.087.1-.18.2-.273.291s-.174.169-.265.247c-.044.038-.087.076-.131.11l-.087.073c-.009.009-.02.015-.029.023l.026-.02a.66.66 0 0 1-.154.113c-.047.032-.093.067-.142.1-.11.076-.224.145-.34.212-.1.058-.2.113-.3.166-.058.029-.116.058-.174.084-.029.015-.058.026-.087.041l-.052.023.032-.015a1.1 1.1 0 0 1-.326.125c-.137.047-.273.09-.41.125-.113.032-.23.058-.346.081-.064.015-.131.026-.195.038l-.1.017c-.02 0-.16.017-.061.009s-.029 0-.041.006l-.081.009-.2.017c-.142.009-.285.015-.427.015s-.259-.006-.387-.015c-.067-.006-.134-.009-.2-.017l-.081-.009-.079-.009c.081.012.1.015.055.009a6.416 6.416 0 0 1-.773-.163c-.119-.032-.238-.07-.355-.111-.061-.02-.122-.044-.183-.067a.76.76 0 0 1-.073-.029c-.023-.009-.047-.02-.073-.029l.067.029a.79.79 0 0 1-.177-.079c-.058-.026-.116-.055-.174-.084-.113-.058-.227-.119-.337-.183s-.218-.134-.323-.2c-.052-.035-.1-.073-.157-.11-.02-.015-.041-.029-.061-.047s-.041-.029-.061-.047l.058.044a.638.638 0 0 1-.148-.119c-.049-.041-.1-.081-.145-.125-.1-.084-.186-.172-.276-.262s-.177-.183-.259-.279c-.038-.044-.076-.087-.11-.131l-.061-.073-.035-.044.032.044a.752.752 0 0 1-.113-.154c-.038-.052-.073-.1-.108-.157-.07-.108-.14-.215-.2-.326s-.119-.212-.174-.32c-.026-.052-.052-.1-.076-.157-.017-.035-.032-.07-.049-.1a.175.175 0 0 1-.015-.035c-.026-.058-.02-.047.015.032a.542.542 0 0 1-.07-.18c-.02-.055-.041-.111-.058-.166-.044-.128-.084-.259-.119-.393s-.061-.241-.087-.363c-.012-.058-.023-.116-.032-.174-.006-.038-.015-.078-.02-.119s-.009-.166 0 0c-.012-.256-.047-.512-.049-.768v-6.6c0-.122.006-.244.015-.366.006-.067.009-.134.017-.2 0-.032.006-.067.012-.1.017-.154-.017.1 0-.023a6.673 6.673 0 0 1 .16-.753c.032-.119.07-.238.111-.355.02-.061.044-.122.067-.183a.741.741 0 0 1 .029-.073c.009-.023.02-.047.029-.073-.032.073-.038.09-.02.049.11-.233.218-.462.349-.686.061-.1.128-.206.195-.308.035-.052.073-.1.11-.157.015-.02.029-.041.047-.061s.029-.041.047-.061l-.044.058a.637.637 0 0 1 .119-.148c.041-.049.081-.1.125-.145.084-.1.172-.186.262-.276s.183-.177.279-.259c.047-.041.1-.084.145-.122.02-.017.041-.032.058-.049l.061-.047-.058.044c.026-.044.11-.081.154-.113s.1-.073.157-.108c.108-.07.215-.14.326-.2s.224-.125.337-.183l.157-.076.087-.041.052-.023c.041-.017.023-.012-.049.02a.612.612 0 0 1 .18-.07l.183-.067q.183-.061.375-.113c.128-.035.256-.064.384-.09.058-.012.116-.023.174-.032s.279-.026.1-.017c.27-.015.538-.049.811-.049.128 0 .259.006.387.015.061 0 .122.009.18.015.041 0 .078.009.119.015.119.012-.125-.02 0 0a6.419 6.419 0 0 1 .773.166c.113.032.224.067.334.1.061.02.122.044.183.067l.09.035c.14.055-.087-.041.02.009a6.586 6.586 0 0 1 .683.352c.1.058.195.119.291.186.052.035.1.073.157.11.026.017.052.038.076.055.119.087-.073-.061.017.015a6.874 6.874 0 0 1 .552.5c.084.087.166.174.247.265.041.047.084.1.122.145.017.02.032.041.049.058s.032.041.047.061c-.049-.061-.058-.076-.032-.041.145.209.294.416.422.637.061.1.119.212.172.323l.084.174c.012.023.02.047.032.07s.02.047.032.07l-.029-.067a.583.583 0 0 1 .07.18l.067.183q.061.183.113.375c.035.128.064.256.09.384.012.064.026.131.035.195a.731.731 0 0 1 .012.078c0 .026.009.052.012.078a.672.672 0 0 0-.012-.076.635.635 0 0 1 .023.2c.006.067.012.134.015.2.006.122.012.244.012.366v6.551a.582.582 0 0 0 1.163 0v-3.141-3.4a6.66 6.66 0 0 0-13.27-.826 11.048 11.048 0 0 0-.052 1.387v5.827a7.016 7.016 0 0 0 .355 2.3 6.659 6.659 0 0 0 12.965-2.149.58.58 0 0 0-1.16 0z" class="prefix__cls-1" data-name="Path 653" transform="translate(-284.494 -258.208)"/>
                </g>
            </g>
            <g id="prefix__Group_638" data-name="Group 638" transform="translate(6.08 8.902)">
                <g id="prefix__Group_637" data-name="Group 637">
                    <path id="prefix__Path_654" d="M493.6 389.964v2.71a.582.582 0 0 0 1.163 0v-2.71a.582.582 0 0 0-1.163 0z" class="prefix__cls-1" data-name="Path 654" transform="translate(-493.6 -389.382)"/>
                </g>
            </g>
            <g id="prefix__Group_640" data-name="Group 640" transform="translate(4.528)">
                <g id="prefix__Group_639" data-name="Group 639">
                    <path id="prefix__Path_655" d="M440.522 84.3c-.236-.177-.032-.017.035.052s.108.122.16.186c.07.084-.1-.137-.035-.047.015.023.032.044.049.067.035.049.07.1.1.148.079.119.148.244.215.369l.1.209c.017.035.032.073.049.108.023.052.02.116-.015-.038.006.026.023.052.032.079a7.36 7.36 0 0 1 .372 1.291c.029.145.052.294.076.439.017.1 0-.012 0-.029.009.049.012.1.017.151l.026.247c.035.381.049.762.052 1.143a.582.582 0 0 0 1.163 0 9.9 9.9 0 0 0-.538-3.446 5.1 5.1 0 0 0-.96-1.666 1.917 1.917 0 0 0-.305-.27.585.585 0 0 0-.6 1.006z" class="prefix__cls-1" data-name="Path 655" transform="translate(-440.241 -83.205)"/>
                </g>
            </g>
        </g>
    </g>
</svg>
