<svg id="Layer_1" data-name="Layer 1" xmlns="http://www.w3.org/2000/svg" viewBox="0 0 200 200"><defs><style>.cls-1{fill:none;}.cls-1,.cls-2{stroke:#000;stroke-miterlimit:10;stroke-width:2px;}.cls-2{fill:#fff;}.cls-3{fill:#8800c2;}</style></defs><title>icon</title><path class="cls-1" d="M47,166.11l-.71.13-3.67.63a10.79,10.79,0,0,1-.33-2.36,8.91,8.91,0,0,1,1.16-5.14,8.12,8.12,0,0,1,2.34-2.46,9.76,9.76,0,0,1,3-1.41c14.77-4.06,29.56-8,44.31-12.15,1.53-.43,2.86-1.58,4.26-2.43a.83.83,0,0,0,.25-.64c0-2.9,0-5.81,0-8.94-.37-2.24-1.18-3.1-1.88-3.45-1-.48-1.77,0-2.85-.5a4.37,4.37,0,0,1-2.09-2.79c-6.42-.69-11.14-.58-11.93-.12-.36.22-.69.46-.69.46a4.83,4.83,0,0,1-4.27,1.76c-1.41,0-2.82,0-4.23,0a4.54,4.54,0,0,1-4.43-4.52,4.61,4.61,0,0,1,4.49-4.64,31.57,31.57,0,0,1,5,0,5.85,5.85,0,0,1,3,1.28,3.88,3.88,0,0,0,1.44.85,3.49,3.49,0,0,0,1.15.12c1.07-.06,4.94-.14,10.29-.27a5.8,5.8,0,0,0,1.71-1.77,6.48,6.48,0,0,0,.62-4.91v-4.55H91.07c-7.74,0-15.48,0-23.22,0a16.16,16.16,0,0,1-16-12.66,18.34,18.34,0,0,1-.41-4.06c0-5,0-10,0-15a8.21,8.21,0,0,0-1.3-3.82c-.74-1.32-1.19-1.46-1.22-2-.17-2.59,8.16-5.74,9.07-4.43.46.66-.84,2.66-1.71,5.39a2.42,2.42,0,0,0-.22,1c.06,2.48,0,5,0,7.44a2.17,2.17,0,0,0,.14.48H65c-.19-3.35-.39-6.7-.58-10.05,0-.18,0-.52-.07-.95C63.19,55.11,59,35.58,57.82,30.85A12.88,12.88,0,0,1,62.13,17.4c4.52-4,10-6.26,15.7-7.74,16.42-4.24,32.76-4.1,48.84,1.58A39.82,39.82,0,0,1,135.82,16c6,4.13,7.64,9.24,5.85,16.29a220,220,0,0,0-6.76,46.57c0,.52,0,1,0,1.66h8.66a9.65,9.65,0,0,0,.13-1.08c0-1.75,0-3.51,0-5.26a5.76,5.76,0,0,0,0-1.05,6.69,6.69,0,0,0-.39-1.53c-.89-2.3-2-3.56-1.74-4.23.71-2.13,14.94.64,14.85,1.38,0,.26-1.81-.21-3.84.94a8.4,8.4,0,0,0-3,3.1,8.09,8.09,0,0,0-1.23,3.33c0,5.06,0,10.12,0,15.19,0,10-7,17-17,17H106.92v4.57c.11,1.52.23,3.05.35,4.57a3.42,3.42,0,0,1,2.47.51c1.15.8,1.72,2.41,1.27,3.16s-2.22-.22-3.23.7,0,3.26-.89,3.79-3-2.07-4.23-1.58c-.82.34-1.24,2.15-.46,7.31,0,3.14,0,6,0,9a.85.85,0,0,0,.25.64c1.41.84,2.74,2,4.27,2.41,14.71,4.11,29.44,8.1,44.18,12.1a9,9,0,0,1,5.1,3.37,9.66,9.66,0,0,1,1.24,7.57l-1.19-.21c-1.08-.19-2.15-.37-3.21-.53l-46.68-6.71c-.19,1.88-.42,3.46-.62,4.65-.69,4.1-1.25,5.15-2.09,5.88a4.82,4.82,0,0,1-2.09,1,9.67,9.67,0,0,1-1.43.15,10.43,10.43,0,0,1-2.14-.15,7.19,7.19,0,0,1-2.07-1.8c-.72-.93-1.12-1.94-1.66-4.75-.27-1.39-.58-3.22-.8-5.41Q70.16,161.85,47,166.11Z"/><path class="cls-2" d="M51.48,85.07a32.22,32.22,0,0,0,0,5.94c.28,3,.66,7,3,10.41,3.39,5,9.25,6.38,11.19,6.73l9.65,0c2.58,0,20.12-.08,23.5,0l3.38,0h2.08q14.3.11,28.25,0a15.72,15.72,0,0,0,8.92-3,16.27,16.27,0,0,0,3-3,17.73,17.73,0,0,0,3-5.94,22.74,22.74,0,0,0,.75-10,18.09,18.09,0,0,1-1.34,1.5A20.26,20.26,0,0,1,138,92.87c-40.91,1-70.81.79-76.32-.16a15,15,0,0,1-7.28-3.36A12.14,12.14,0,0,1,51.48,85.07Z"/><path d="M102.11,108.42c-.47,0-.81-.11-1.14-.1-4,.1-3.29-.8-3.38,3.49,0,.85.37,1.09,1.16,1.07,4.15-.1,3.33.61,3.43-3.3C102.19,109.25,102.14,108.91,102.11,108.42Z"/><ellipse cx="99.62" cy="177.23" rx="2.23" ry="2.97"/><ellipse cx="155.15" cy="173.14" rx="2.23" ry="2.97"/><ellipse cx="43.44" cy="173.43" rx="2.23" ry="2.97"/><path class="cls-1" d="M91.62,143l1.55,14.9"/><path class="cls-1" d="M108,144.53q-.82,6.74-1.66,13.48"/><path class="cls-3" d="M107.93,130.57l-15.86,0a6.92,6.92,0,0,1-4.55-1.76,7,7,0,0,1-2.21-4.31l0-5.94a6.86,6.86,0,0,1,2-3.86,7.11,7.11,0,0,1,5.44-1.83l14.87,0a6.35,6.35,0,0,1,2.26.41,6.85,6.85,0,0,1,2.16,1.39,7.19,7.19,0,0,1,1.84,2.79l.23.67c.11.77.2,1.61.24,2.52a24.39,24.39,0,0,1-.07,3.14l-.13.86a6.83,6.83,0,0,1-3.47,5.07,6.23,6.23,0,0,1-1.51.57Z"/><path class="cls-3" d="M59.61,66.76A6.85,6.85,0,0,1,58,69.83c-.82.83-1.73,1.2-8.93,1.66-2.47.16-5.22.3-7.37-.88a4.94,4.94,0,0,1-1.36-1.07A6,6,0,0,1,39.07,66a7.52,7.52,0,0,1,.49-4.25,7.1,7.1,0,0,1,3.71-3.41,4.4,4.4,0,0,1,.59-.21,10.77,10.77,0,0,1,4-.33c3.07.13,2.7-.07,4.59.1a11.21,11.21,0,0,1,3.31.54,7.09,7.09,0,0,1,3.42,3.36A7.35,7.35,0,0,1,59.61,66.76Z"/><path class="cls-3" d="M139.6,66.69a6.62,6.62,0,0,0,1.61,3.08c.81.83,1.72,1.2,8.93,1.66,2.47.15,5.22.29,7.36-.88a4.82,4.82,0,0,0,1.37-1.08,6,6,0,0,0,1.27-3.56,7.57,7.57,0,0,0-.49-4.24,7.14,7.14,0,0,0-3.71-3.41,4.4,4.4,0,0,0-.59-.21,10.37,10.37,0,0,0-4-.33c-3.07.12-2.7-.07-4.59.1a11.45,11.45,0,0,0-3.32.53A7,7,0,0,0,140,61.72,7.32,7.32,0,0,0,139.6,66.69Z"/><path d="M99.62,171.59c2.68,0,4.85,2.53,4.85,5.64s-2.17,5.64-4.85,5.64-4.85-2.53-4.85-5.64,2.18-5.64,4.85-5.64m0-2c-3.78,0-6.85,3.42-6.85,7.64s3.07,7.64,6.85,7.64,6.85-3.42,6.85-7.64-3.06-7.64-6.85-7.64Z"/><path d="M43.62,167.79c2.68,0,4.85,2.53,4.85,5.64s-2.17,5.64-4.85,5.64-4.85-2.53-4.85-5.64,2.18-5.64,4.85-5.64m0-2c-3.78,0-6.85,3.42-6.85,7.64s3.07,7.64,6.85,7.64,6.85-3.42,6.85-7.64-3.06-7.64-6.85-7.64Z"/><path d="M155.15,167.5c2.68,0,4.86,2.53,4.86,5.64s-2.18,5.64-4.86,5.64-4.85-2.53-4.85-5.64,2.18-5.64,4.85-5.64m0-2c-3.78,0-6.85,3.42-6.85,7.64s3.07,7.64,6.85,7.64,6.86-3.42,6.86-7.64-3.07-7.64-6.86-7.64Z"/></svg>