<svg xmlns="http://www.w3.org/2000/svg" viewBox="0 0 115.08 77.69"><defs><style>.cls-1{fill:none;stroke:#000;stroke-linecap:round;stroke-linejoin:round;stroke-width:2.14px;}.cls-2{fill:#fff;}.cls-3{fill:#8700c1;}</style></defs><g id="Layer_2" data-name="Layer 2"><g id="Layer_1-2" data-name="Layer 1"><path class="cls-1" d="M98.19,22.18q4.77,1.29,9.94,3s7.91-1.33,5.38,4.38c-.68,1.54-3.66,2.84-4.17,5.26s1.75,12.28-7.41,26.59c0,0,.77,6.66-1,6.64s-3.3-3.22-5.44-3.31-40.13,8.87-67.61-6.3c0,0-4.86.78-7.75-.92s3.67-7.16,3.67-7.16"/><path class="cls-1" d="M22.25,42.12S58.17,48,83.71,35.61"/><path class="cls-1" d="M34.86,56.7a84,84,0,0,0,46.33,3.36"/><circle class="cls-2" cx="3.18" cy="74.51" r="3.18"/><path class="cls-3" d="M15.41,26.67s16.18-13.73,69.05-6.76c3.17.42,9.71,3,12.8,6l.07-13.07s3-3.68,3.16-6.92S94.6,3.51,94.6,3.51s-37-7.26-70.48,2.24c0,0-5.68-.34-1.48,8.77Z"/><path class="cls-1" d="M22.64,14.52s-4.51-9.06,1.48-8.77S51.43-3.18,94.6,3.51c0,0,6.1-1.82,5.89,2.41s-3,4.45-3.16,6.92,3.67,11.85-3.1,27.43c0,0,1.81,6.45,0,6.72s-3.77-2.66-5.9-2.41S50.15,59.7,20.61,49.07c0,0-4.68,1.54-7.8.33s2.49-7.66,2.49-7.66S10.93,29.86,22.64,14.52Z"/></g></g></svg>