<svg xmlns="http://www.w3.org/2000/svg" viewBox="0 0 199.52 199.52"><defs><style>.cls-1{fill:#8800c2;}.cls-2{fill:#fff;stroke-width:2px;}.cls-2,.cls-3{stroke:#000;stroke-miterlimit:10;}.cls-3,.cls-4{fill:none;}.cls-3{stroke-width:3px;}</style></defs><title>1Asset 181</title><g id="Layer_2" data-name="Layer 2"><g id="Layer_1-2" data-name="Layer 1"><path class="cls-1" d="M72.46,134.83H61.19V129.4a5.27,5.27,0,0,1,5.26-5.26h.75a5.27,5.27,0,0,1,5.26,5.26Z"/><path class="cls-1" d="M84.42,134.83H73.15V129.4a5.26,5.26,0,0,1,5.26-5.26h.74a5.27,5.27,0,0,1,5.27,5.26Z"/><path class="cls-1" d="M104.88,134.83H93.61V129.4a5.27,5.27,0,0,1,5.26-5.26h.75a5.27,5.27,0,0,1,5.26,5.26Z"/><path class="cls-1" d="M116.84,134.83H105.57V129.4a5.27,5.27,0,0,1,5.26-5.26h.75a5.27,5.27,0,0,1,5.26,5.26Z"/><rect x="107.97" y="93.05" width="5.06" height="4.42"/><polygon class="cls-2" points="170.93 135.03 170.93 160.22 164.59 160.22 162.59 141.94 37.47 141.94 36.63 163.22 30.30 163.22 28.30 135.03 170.93 135.03"/><rect class="cls-3" x="26.63" y="86.3" width="142.98" height="48.74"/><line class="cls-3" x1="124.76" y1="86.81" x2="124.76" y2="134.52"/><rect class="cls-4" width="199.52" height="199.52"/></g></g></svg>