<svg xmlns="http://www.w3.org/2000/svg" viewBox="0 0 150 150"><defs><style>.cls-1,.cls-2,.cls-4{fill:none;}.cls-2{stroke:#231f20;}.cls-2,.cls-4{stroke-miterlimit:10;stroke-width:2px;}.cls-3{fill:#8800c2;}.cls-4{stroke:#8800c2;}</style></defs><title>1sAsset 261</title><g id="Layer_2" data-name="Layer 2"><g id="Layer_1-2" data-name="Layer 1"><rect class="cls-1" width="150" height="150"/><rect class="cls-2" x="17.83" y="86.51" width="114.34" height="15.49"/><path class="cls-2" d="M17.83,76.66H75V50c0-3.32-3.1-6-6.92-6H16.22c-3.82,0-6.91,2.69-6.91,6v21"/><path class="cls-2" d="M140.69,50.41V70.93l-7.5,1.56a1.19,1.19,0,0,0-1,1.08v3.09H75V50.41A6.45,6.45,0,0,1,81.45,44h52.79A6.45,6.45,0,0,1,140.69,50.41Z"/><polygon class="cls-3" points="13.7 106.05 10.06 106.05 9.18 102 14.58 102 13.7 106.05"/><polygon class="cls-3" points="139.81 106.05 136.17 106.05 135.29 102 140.69 102 139.81 106.05"/><line class="cls-4" x1="24.71" y1="56.48" x2="59.59" y2="56.48"/><line class="cls-4" x1="90.4" y1="56.48" x2="125.28" y2="56.48"/><path class="cls-2" d="M16.48,102H7.41a1.29,1.29,0,0,1-1.35-1L3.23,71.19C3.14,70.42,4,69.82,4.91,70l11.9,2.48a1.18,1.18,0,0,1,1,1.08v27.31A1.25,1.25,0,0,1,16.48,102Z"/><path class="cls-2" d="M140.69,70.93l4.4-.92c.91-.19,1.77.42,1.68,1.18L143.94,101a1.29,1.29,0,0,1-1.35,1h-9.07a1.25,1.25,0,0,1-1.35-1.12V76.66"/><rect class="cls-2" x="17.83" y="76.66" width="57.17" height="9.85" rx="2"/><rect class="cls-2" x="75" y="76.66" width="57.17" height="9.85" rx="2"/></g></g></svg>