<svg id="Layer_1" data-name="Layer 1" xmlns="http://www.w3.org/2000/svg" viewBox="0 0 200 200"><defs><style>.cls-1{fill:none;stroke:#000;stroke-miterlimit:10;stroke-width:2px;}.cls-2{fill:#8800c2;}</style></defs><title>towel</title><path class="cls-1" d="M76.36,126.88a7.42,7.42,0,0,0-1.27,14.42l80.55.51c7.14-3.3,11.05-10.67,9.7-17.49-1.53-7.74-9.08-11-9.7-11.24a14.72,14.72,0,0,0,0-27.95H76.36a7.21,7.21,0,0,0,0,14.17,6.91,6.91,0,0,0,0,13.79,6.94,6.94,0,0,0,0,13.79Z"/><path class="cls-1" d="M71,95,33.85,55.13a7,7,0,0,1-.38-7.53,7.2,7.2,0,0,1,5.23-3.32c42,0,72.38,0,76.85-.25a10.56,10.56,0,0,1,5.36,1,10.73,10.73,0,0,1,4.09,3.7c2.46,3.59,15.16,17.67,34.13,38.22"/><path class="cls-1" d="M36.15,57.81c-1.4,1.26-3.64,3.7-3.58,6.76a8.27,8.27,0,0,0,2.3,5.11c3.65,4.21,17,19,35.41,39"/><path class="cls-1" d="M36,72.32c-1.2,1-3.28,3-3.41,5.79-.13,3,2.2,5.37,3.07,6.25C40.2,89,53,103,70.53,121.94"/><path class="cls-1" d="M35.72,85.6a7.63,7.63,0,0,0-3.4,5.91,7.48,7.48,0,0,0,2.28,5.42l37.21,42.2"/><path class="cls-2" d="M76,100.41l59.75-.25,16.92-.07a1.13,1.13,0,0,0,0-2.25l-59.74.25L76,98.16a1.13,1.13,0,0,0,0,2.25Z"/><path d="M75.38,114.19l63.93-.25,18.16-.07a1.17,1.17,0,0,0,0-2.33l-63.93.25-18.16.07a1.17,1.17,0,0,0,0,2.33Z"/><path class="cls-2" d="M75.64,128l59.75-.25,16.92-.07a1.13,1.13,0,0,0,0-2.25l-59.74.25-16.93.07a1.13,1.13,0,0,0,0,2.25Z"/></svg>